<svg width="133" height="24" viewBox="0 0 133 24" fill="none" xmlns="http://www.w3.org/2000/svg">
<g clip-path="url(#clip0_6_20)">
<mask id="mask0_6_20" style="mask-type:luminance" maskUnits="userSpaceOnUse" x="0" y="0" width="29" height="24">
<path d="M0 0H28.571V24H0V0Z" fill="white"/>
</mask>
<g mask="url(#mask0_6_20)">
<path fill-rule="evenodd" clip-rule="evenodd" d="M0 9.524C0 6.99808 1.00342 4.57561 2.78952 2.78952C4.57561 1.00342 6.99808 0 9.524 0L19.048 0C21.5737 0.000265198 23.996 1.0038 25.7818 2.78987C27.5677 4.57594 28.571 6.99825 28.571 9.524C28.571 12.0497 27.5677 14.4721 25.7818 16.2581C23.996 18.0442 21.5737 19.0477 19.048 19.048H15.418L17.419 21.76C18.199 22.817 17.012 24.202 15.848 23.591L5.467 18.143C3.83214 17.3725 2.4501 16.1529 1.48211 14.6267C0.514121 13.1004 9.38432e-05 11.3303 0 9.523M4 9.523C4.00027 8.05812 4.58237 6.65332 5.6183 5.61759C6.65422 4.58185 8.05912 4 9.524 4H19.048C20.5131 4 21.9181 4.58199 22.9541 5.61794C23.99 6.65389 24.572 8.05894 24.572 9.524C24.572 10.9891 23.99 12.3941 22.9541 13.4301C21.9181 14.466 20.5131 15.048 19.048 15.048H9.524C8.05894 15.048 6.65389 14.466 5.61794 13.4301C4.58199 12.3941 4 10.9891 4 9.524" fill="url(#paint0_radial_6_20)"/>
<path fill-rule="evenodd" clip-rule="evenodd" d="M17.9048 11.429C18.41 11.429 18.8946 11.2283 19.2518 10.8711C19.6091 10.5138 19.8098 10.0293 19.8098 9.52402C19.8098 9.01878 19.6091 8.53424 19.2518 8.17698C18.8946 7.81972 18.41 7.61902 17.9048 7.61902C17.3996 7.61902 16.915 7.81972 16.5578 8.17698C16.2005 8.53424 15.9998 9.01878 15.9998 9.52402C15.9998 10.0293 16.2005 10.5138 16.5578 10.8711C16.915 11.2283 17.3996 11.429 17.9048 11.429ZM10.4758 11.429C10.981 11.429 11.4656 11.2283 11.8228 10.8711C12.1801 10.5138 12.3808 10.0293 12.3808 9.52402C12.3808 9.01878 12.1801 8.53424 11.8228 8.17698C11.4656 7.81972 10.981 7.61902 10.4758 7.61902C9.97056 7.61902 9.48602 7.81972 9.12876 8.17698C8.77151 8.53424 8.5708 9.01878 8.5708 9.52402C8.5708 10.0293 8.77151 10.5138 9.12876 10.8711C9.48602 11.2283 9.97056 11.429 10.4758 11.429Z" fill="url(#paint1_linear_6_20)"/>
</g>
<path d="M39.7404 6.87109C39.6642 6.15779 39.3429 5.60239 38.7766 5.2049C38.2158 4.80741 37.4862 4.60866 36.5877 4.60866C35.9561 4.60866 35.4143 4.70395 34.9624 4.89453C34.5104 5.08511 34.1647 5.34375 33.9251 5.67045C33.6855 5.99716 33.563 6.37015 33.5575 6.78942C33.5575 7.1379 33.6365 7.4401 33.7944 7.69602C33.9577 7.95194 34.1783 8.16974 34.456 8.34943C34.7337 8.52367 35.0413 8.67069 35.3789 8.79048C35.7165 8.91027 36.0568 9.01101 36.3999 9.09268L37.968 9.48473C38.5997 9.63175 39.2068 9.83049 39.7894 10.081C40.3775 10.3314 40.9029 10.6473 41.3658 11.0284C41.834 11.4096 42.2043 11.8697 42.4766 12.4087C42.7488 12.9478 42.8849 13.5794 42.8849 14.3036C42.8849 15.2837 42.6345 16.1468 42.1335 16.8928C41.6326 17.6333 40.9084 18.2132 39.9609 18.6325C39.0189 19.0463 37.8782 19.2532 36.5387 19.2532C35.2373 19.2532 34.1075 19.0517 33.1491 18.6488C32.1963 18.2459 31.4503 17.6578 30.9112 16.8846C30.3776 16.1114 30.089 15.1694 30.0455 14.0586H33.0266C33.0702 14.6412 33.2499 15.1258 33.5657 15.5124C33.8815 15.899 34.2926 16.1876 34.799 16.3782C35.3108 16.5688 35.8826 16.6641 36.5142 16.6641C37.1731 16.6641 37.7502 16.5661 38.2457 16.37C38.7467 16.1686 39.1387 15.8909 39.4219 15.5369C39.705 15.1776 39.8493 14.7583 39.8548 14.2791C39.8493 13.8435 39.7214 13.4841 39.4709 13.201C39.2204 12.9124 38.8692 12.6728 38.4173 12.4822C37.9708 12.2862 37.448 12.112 36.8491 11.9595L34.946 11.4695C33.5684 11.1155 32.4794 10.5792 31.679 9.86044C30.884 9.13625 30.4865 8.17519 30.4865 6.97727C30.4865 5.99171 30.7533 5.12867 31.2869 4.38814C31.826 3.64761 32.5584 3.07315 33.484 2.66477C34.4097 2.25095 35.4579 2.04403 36.6286 2.04403C37.8156 2.04403 38.8556 2.25095 39.7486 2.66477C40.647 3.07315 41.3522 3.64216 41.864 4.3718C42.3758 5.096 42.6399 5.9291 42.6562 6.87109H39.7404ZM47.2934 23.7045C46.8905 23.7045 46.5175 23.6719 46.1744 23.6065C45.8369 23.5466 45.5673 23.4759 45.3659 23.3942L46.0519 21.0909C46.4821 21.2161 46.866 21.276 47.2036 21.2706C47.5412 21.2652 47.8379 21.159 48.0938 20.9521C48.3552 20.7506 48.5757 20.413 48.7554 19.9393L49.0086 19.2614L44.4593 6.45455H47.5956L50.487 15.929H50.6176L53.5171 6.45455H56.6617L51.6386 20.5192C51.4044 21.1835 51.0941 21.7525 50.7075 22.2262C50.3209 22.7054 49.8472 23.0702 49.2863 23.3207C48.7309 23.5766 48.0666 23.7045 47.2934 23.7045ZM61.6643 11.6491V19H58.7077V6.45455H61.5336V8.58629H61.6807C61.9693 7.88388 62.4294 7.32576 63.061 6.91193C63.6981 6.49811 64.4849 6.29119 65.4214 6.29119C66.2872 6.29119 67.0413 6.47633 67.6839 6.84659C68.3318 7.21686 68.8328 7.7532 69.1867 8.45561C69.5461 9.15803 69.723 10.0102 69.7176 11.0121V19H66.7609V11.4695C66.7609 10.6309 66.5431 9.97479 66.1075 9.50106C65.6773 9.02734 65.0811 8.79048 64.3188 8.79048C63.8015 8.79048 63.3414 8.90483 62.9385 9.13352C62.541 9.35677 62.2279 9.68075 61.9992 10.1055C61.776 10.5302 61.6643 11.0447 61.6643 11.6491ZM87.1718 7.91655H84.1171C84.03 7.4156 83.8693 6.97183 83.6352 6.58523C83.4011 6.19318 83.1098 5.86103 82.7613 5.58878C82.4128 5.31652 82.0153 5.11233 81.5688 4.97621C81.1278 4.83464 80.6513 4.76385 80.1395 4.76385C79.2301 4.76385 78.4243 4.99254 77.7219 5.44993C77.0194 5.90187 76.4695 6.56617 76.072 7.44283C75.6745 8.31404 75.4758 9.37855 75.4758 10.6364C75.4758 11.916 75.6745 12.9941 76.072 13.8707C76.4749 14.742 77.0249 15.4008 77.7219 15.8473C78.4243 16.2884 79.2274 16.5089 80.1313 16.5089C80.6323 16.5089 81.1005 16.4435 81.5361 16.3129C81.9772 16.1767 82.372 15.978 82.7204 15.7166C83.0744 15.4553 83.3711 15.134 83.6107 14.7528C83.8557 14.3717 84.0245 13.9361 84.1171 13.446L87.1718 13.4624C87.0574 14.2573 86.8097 15.0033 86.4285 15.7003C86.0528 16.3973 85.56 17.0125 84.9502 17.5462C84.3403 18.0743 83.627 18.4882 82.8103 18.7876C81.9935 19.0817 81.0869 19.2287 80.0905 19.2287C78.6203 19.2287 77.308 18.8884 76.1537 18.2077C74.9993 17.5271 74.09 16.5443 73.4257 15.2592C72.7614 13.9742 72.4292 12.4332 72.4292 10.6364C72.4292 8.83404 72.7641 7.29309 73.4339 6.01349C74.1036 4.72846 75.0157 3.74562 76.17 3.06498C77.3244 2.38435 78.6312 2.04403 80.0905 2.04403C81.0216 2.04403 81.8873 2.17472 82.6878 2.43608C83.4882 2.69744 84.2015 3.08132 84.8277 3.58771C85.4539 4.08866 85.9684 4.70395 86.3714 5.43359C86.7797 6.15779 87.0465 6.98544 87.1718 7.91655ZM92.7727 11.6491V19H89.8161V2.27273H92.7074V8.58629H92.8544C93.1484 7.87843 93.6031 7.32031 94.2184 6.91193C94.8391 6.49811 95.6287 6.29119 96.587 6.29119C97.4582 6.29119 98.2178 6.4736 98.8658 6.83842C99.5137 7.20324 100.015 7.73686 100.369 8.43928C100.728 9.14169 100.908 9.99929 100.908 11.0121V19H97.951V11.4695C97.951 10.6255 97.7332 9.96934 97.2976 9.50106C96.8674 9.02734 96.263 8.79048 95.4844 8.79048C94.9616 8.79048 94.4934 8.90483 94.0795 9.13352C93.6712 9.35677 93.3499 9.68075 93.1158 10.1055C92.8871 10.5302 92.7727 11.0447 92.7727 11.6491ZM107.532 19.2532C106.737 19.2532 106.021 19.1116 105.384 18.8285C104.752 18.5399 104.251 18.1152 103.881 17.5543C103.516 16.9935 103.333 16.302 103.333 15.4798C103.333 14.7719 103.464 14.1866 103.725 13.7237C103.987 13.2609 104.344 12.8906 104.795 12.6129C105.247 12.3352 105.757 12.1256 106.323 11.984C106.895 11.837 107.485 11.7308 108.095 11.6655C108.83 11.5893 109.426 11.5212 109.884 11.4613C110.341 11.396 110.673 11.2979 110.88 11.1673C111.093 11.0311 111.199 10.8215 111.199 10.5384V10.4893C111.199 9.87405 111.016 9.39761 110.652 9.06001C110.287 8.72242 109.761 8.55362 109.075 8.55362C108.351 8.55362 107.777 8.71153 107.352 9.02734C106.933 9.34316 106.65 9.71615 106.502 10.1463L103.742 9.75426C103.96 8.99195 104.319 8.35488 104.82 7.84304C105.321 7.32576 105.933 6.93916 106.658 6.68324C107.382 6.42188 108.182 6.29119 109.059 6.29119C109.663 6.29119 110.265 6.36198 110.864 6.50355C111.463 6.64512 112.01 6.87926 112.506 7.20597C113.001 7.52722 113.399 7.96555 113.698 8.52095C114.003 9.07635 114.156 9.7706 114.156 10.6037V19H111.313V17.2766H111.215C111.036 17.6251 110.782 17.9518 110.456 18.2567C110.134 18.5562 109.729 18.7985 109.239 18.9837C108.754 19.1634 108.185 19.2532 107.532 19.2532ZM108.299 17.0806C108.893 17.0806 109.407 16.9635 109.843 16.7294C110.279 16.4898 110.614 16.174 110.848 15.782C111.087 15.3899 111.207 14.9625 111.207 14.4996V13.0213C111.114 13.0975 110.957 13.1683 110.733 13.2337C110.516 13.299 110.27 13.3562 109.998 13.4052C109.726 13.4542 109.456 13.4978 109.19 13.5359C108.923 13.574 108.691 13.6067 108.495 13.6339C108.054 13.6938 107.66 13.7918 107.311 13.9279C106.963 14.064 106.688 14.2546 106.486 14.4996C106.285 14.7392 106.184 15.0496 106.184 15.4308C106.184 15.9753 106.383 16.3864 106.78 16.6641C107.178 16.9418 107.684 17.0806 108.299 17.0806ZM123.393 6.45455V8.74148H116.181V6.45455H123.393ZM117.962 3.44886H120.918V15.2266C120.918 15.6241 120.978 15.929 121.098 16.1413C121.223 16.3482 121.387 16.4898 121.588 16.5661C121.79 16.6423 122.013 16.6804 122.258 16.6804C122.443 16.6804 122.612 16.6668 122.764 16.6396C122.922 16.6123 123.042 16.5878 123.124 16.5661L123.622 18.8775C123.464 18.9319 123.238 18.9918 122.944 19.0572C122.655 19.1225 122.301 19.1606 121.882 19.1715C121.142 19.1933 120.475 19.0817 119.881 18.8366C119.288 18.5862 118.817 18.1996 118.468 17.6768C118.125 17.1541 117.956 16.5007 117.962 15.7166V3.44886Z" fill="white"/>
</g>
<defs>
<radialGradient id="paint0_radial_6_20" cx="0" cy="0" r="1" gradientUnits="userSpaceOnUse" gradientTransform="translate(8.857 10.19) rotate(53.4018) scale(14.0573 13.9181)">
<stop stop-color="#33FFBB"/>
<stop offset="1" stop-color="#2BD19A"/>
</radialGradient>
<linearGradient id="paint1_linear_6_20" x1="14.1908" y1="7.61902" x2="14.1908" y2="11.429" gradientUnits="userSpaceOnUse">
<stop stop-color="#33FFBB"/>
<stop offset="1" stop-color="#27BF8D"/>
</linearGradient>
<clipPath id="clip0_6_20">
<rect width="133" height="24" fill="white"/>
</clipPath>
</defs>
</svg>
